#!OML:ASF F:\VICON\USERDATA\INSTALL\rory3\rory3.ASF
:FULLY-SPECIFIED
:DEGREES
26
root 0.6629753201917485 17.84750650192659 2.936653926499414 -1.5588219871124172 0.9656923326031062 3.4932598989360604
lfemur 7.074581392687536 -1.875684958106207 -28.12617405446084
ltibia 18.054074155895194
lfoot -16.22213235856881 1.1116995025514533
ltoes -1.5824507662430165
rfemur -26.438712873940954 5.907522581184209 15.722118591044227
rtibia 22.02236765897357
rfoot -7.369019276200904 -16.60810749959715
rtoes -2.000790907546208
lowerback 9.597207042256397 -0.6257630053166444 -4.705195929613368
upperback 0.39677406343140564 -1.3537729544023431 0.6867159049791077
thorax -4.826850600985061 -0.5535604452313633 3.195505099246272
lowerneck -16.95342191917433 -2.8709025302619473 -2.217436811213299
upperneck 20.988460825169415 -3.6004208169296423 0.71220090542541
head 9.484784370923691 -1.771609177254264 0.15349457931933264
lclavicle -3.20303057659232e-15 -6.867026138992822e-16
lhumerus -23.475955435198376 -4.754137354338954 82.75900451063899
lradius 29.441688667743332
lwrist 6.885963337589445
lhand -27.174338170757782 27.375476217930107
lfingers 7.1250199999999975
lthumb -0.5884769699406726 57.34836806712261
rclavicle -3.20303057659232e-15 -6.867026138992822e-16
rhumerus -30.29520227651857 -20.090734140144104 -78.65376696408815
rradius 22.322122789078207
rwrist 7.53062214492757
rhand -17.256499021837943 22.749223889136864
rfingers 7.1250199999999975
rthumb 8.987672078624511 -7.073434089756566
27
root 0.5483897349732608 17.769419470840347 3.5974263122590635 -1.2348329003068579 1.6717613639580686 3.510031535356909
lfemur 10.247263622969207 -2.721210551791624 -27.486788739711464
ltibia 17.35027377727001
lfoot -15.60061134582557 0.23133017858476612
ltoes -4.979108198953711
rfemur -26.12818617936593 6.639151961720721 15.581154687001607
rtibia 18.59639738368214
rfoot -7.493037175688347 -15.415983095256323
rtoes -2.847193927335969
lowerback 9.522188386626501 -0.8151406717973005 -4.930475917966616
upperback 0.3578919318171946 -1.6298149805564055 0.8315416961970832
thorax -4.797626493773199 -0.6822336714811851 3.526793159299224
lowerneck -17.081165682971324 -2.8725654465747983 -2.195884983263584
upperneck 20.913446218887348 -3.601554657431476 0.6831317526952431
head 9.465055631255524 -1.7696224877146207 0.14489976161160387
lclavicle -3.0284346470793113e-15 -5.70245068886312e-16
lhumerus -22.335215128423137 -4.904176640400811 82.66107475194387
lradius 30.400757702768598
lwrist 7.4232571840282295
lhand -28.082401822399728 26.107194789252866
lfingers 7.1250199999999975
lthumb -1.4654474083702143 56.07436057210706
rclavicle -3.0284346470793113e-15 -5.70245068886312e-16
rhumerus -30.911609538978052 -21.66769731733439 -77.73178505017623
rradius 21.41076598579443
rwrist 8.588751222849227
rhand -17.575979550095294 22.385547546900323
rfingers 7.1250199999999975
rthumb 8.679382317323428 -7.32951672844882
28
root 0.40015715143393693 17.699905872399498 4.697234447687878 -1.3650707696625277 1.9990382905216544 2.8082477018975287
lfemur 11.927631090825937 -3.5082479807659164 -26.38175029582601
ltibia 20.773863980002027
lfoot -14.180948199889727 -1.4099452413055895
ltoes -10.492974657028013
rfemur -26.66218538862742 6.186423025972118 16.921699101739044
rtibia 20.96907283112662
rfoot -7.154452281973651 -12.186893768328991
rtoes -2.0238739972026614
lowerback 9.531750661616028 -0.985341496055607 -4.715496266483523
upperback 0.33859039283323367 -1.8086588452260473 1.1994369494538593
thorax -4.825606818748818 -0.7713302171784461 3.719966964095805
lowerneck -17.28647619919662 -2.8260244185594887 -2.143277202809107
upperneck 20.930231127584417 -3.5319010008503193 0.5391530552697417
head 9.505699954452473 -1.7404640579158186 0.09779960558997144
lclavicle -3.257225755800903e-15 -7.228514320513134e-16
lhumerus -22.12283197247781 -4.784089404057103 82.9610108254175
lradius 30.709470035425973
lwrist 7.707239407753152
lhand -29.272605241213995 24.607830258672436
lfingers 7.1250199999999975
lthumb -2.614907823515082 54.56512940954961
rclavicle -3.257225755800903e-15 -7.228514320513134e-16
rhumerus -31.789602909211872 -23.673039091164533 -76.48850668890329
rradius 20.42074959916015
rwrist 10.249315455281618
rhand -17.735880659290196 22.02926664620741
rfingers 7.1250199999999975
rthumb 8.525052965116203 -7.702759234038152
29
root 0.2738685940712686 17.705203721960675 5.2896349355076815 -1.8687107388522153 1.9898921375934195 1.6242790410098098
lfemur 11.712664657071826 -3.954910781910636 -24.704036059613596
ltibia 28.116490723966685
lfoot -9.064655971090072 -4.8127371678327275
ltoes -15.111630063868295
rfemur -26.696358734235847 5.338971933638662 19.284251610962322
rtibia 27.16502467251761
rfoot -5.766259282603743 -7.839222128550064
rtoes 1.4490581015184092
lowerback 9.603614877397606 -1.1152763820335512 -3.7946971317078866
upperback 0.3501662937781553 -1.8625570373376323 1.6718127468377397
thorax -4.876872849255683 -0.8085117748330822 3.710152764566234
lowerneck -17.291531135930853 -2.735755436214462 -2.06370272830166
upperneck 21.081296082793667 -3.3760523563911846 0.22528634287135774
head 9.55031974078628 -1.6919356493119555 0.031023689259687487
lclavicle -3.233848715689647e-15 -7.072586716449633e-16
lhumerus -22.949157737848964 -3.827421085626746 83.27909801622968
lradius 30.88333369671995
lwrist 7.624404559886469
lhand -29.729937226092684 23.945348279189172
lfingers 7.1250199999999975
lthumb -3.0565931900856675 53.89524001009999
rclavicle -3.233848715689647e-15 -7.072586716449633e-16
rhumerus -32.65427333250253 -25.86239516433109 -75.00785459951705
rradius 19.289225995229774
rwrist 12.12819639394391
rhand -17.72947310506584 21.897508659371113
rfingers 7.1250199999999975
rthumb 8.531223979381046 -7.870286996759286
30
root 0.16778755486476288 17.78338566447592 5.47989573023711 -2.3428372613810877 1.8799085363131116 -0.357678520566618
lfemur 8.823633179777037 -3.6327047749340844 -21.774672274181285
ltibia 37.702960927524956
lfoot -0.7962142021815799 -9.38527767805581
ltoes -16.547476112590402
rfemur -24.95912984509059 5.010273913275435 22.401817990665272
rtibia 32.03070196523029
rfoot -4.991211291299441 -4.4613224402685665
rtoes 5.820160767658799
lowerback 9.671050370689178 -1.2003499654445369 -2.0991425812809554
upperback 0.29723799110482374 -1.7462782210306096 2.247365566256125
thorax -4.971017432995754 -0.781832941932665 3.4048942237995683
lowerneck -17.202133927801164 -2.6621754079356466 -1.9894217479155751
upperneck 21.309751073060482 -3.245623063845497 -0.04323137039437208
head 9.611652818204922 -1.655587767001541 -0.025822574942930804
lclavicle -3.213349248064125e-15 -6.935852913059801e-16
lhumerus -24.648860961827463 -2.4783836465594478 83.65929584767349
lradius 30.797995669144612
lwrist 6.92483098586241
lhand -28.981631836033113 24.156241770323465
lfingers 7.1250199999999975
lthumb -2.333898207154371 54.10537481303553
rclavicle -3.213349248064125e-15 -6.935852913059801e-16
rhumerus -33.16618569975006 -27.285365982071315 -73.85857706441016
rradius 18.557870650445068
rwrist 13.606639474057703
rhand -17.494397723431966 22.201354324343193
rfingers 7.1250199999999975
rthumb 8.758018890671467 -7.643186847971723
31
root 0.08093416430859707 17.92484826665851 7.733951810694421 -2.8338710945848256 1.6531798791463563 -2.197520738286446
lfemur 3.9646813378525785 -2.592132292629655 -18.455794491242617
ltibia 49.6052116498443
lfoot 7.883116319517346 -13.306014974663036
ltoes -13.229346246941088
rfemur -21.82080345387548 5.127996815246103 25.580545874054042
rtibia 34.913467594414655
rfoot -5.525358583232711 -3.556608830043371
rtoes 9.21557532415806
lowerback 9.851017536249593 -1.1277039701297356 -0.327618441843595
upperback 0.3037228234487325 -1.403505609685527 2.763889734433839
thorax -5.068010910062263 -0.6483193754446407 3.0221635908966813
lowerneck -17.02707108024636 -2.657855996767091 -1.898519762000735
upperneck 21.487173191569678 -3.2422249264320233 -0.02623821998557041
head 9.65438831144896 -1.658310956653984 -0.028417190800743564
lclavicle -2.8368106998165898e-15 -4.4242964439562234e-16
lhumerus -26.45687114937582 -2.0876866691176046 84.13065491956928
lradius 30.24897668366441
lwrist 6.47856359257122
lhand -27.898700750458996 24.846034363556868
lfingers 7.1250199999999975
lthumb -1.2880333785279696 54.80218172479022
rclavicle -2.8368106998165898e-15 -4.4242964439562234e-16
rhumerus -33.01651770859163 -26.958362471707204 -73.79834097926975
rradius 18.57854460606845
rwrist 13.44799727899198
rhand -17.163906729608208 22.283403259604224
rfingers 7.1250199999999975
rthumb 9.077019093453096 -7.564076613305509
32
root -0.03515250797639652 18.05285173252829 8.408884872690734 -3.1749699208084383 1.4435353750957236 -3.667384625702722
lfemur -2.6540487256313554 -1.0697368760157953 -15.563913172100005
ltibia 60.15227930940558
lfoot 11.607968707759373 -14.50489877760428
ltoes -8.176242439259184
rfemur -17.863406624155687 5.589980022280468 28.142627717071957
rtibia 34.73137396092615
rfoot -7.768289102137372 -4.346064826001315
rtoes 10.63420179496588
lowerback 10.03782899829775 -0.8130013537686204 1.137939663270299
upperback 0.3736845116496479 -0.7938911289914874 3.0033670071636576
thorax -5.13407811823546 -0.37838882001798824 2.424948555496072
lowerneck -16.91889134486925 -2.7561619208963997 -1.7941885491240694
upperneck 21.565191077801842 -3.423179450009722 0.21505024227915748
head 9.677347685115631 -1.7182937604695239 -0.006188658223971605
lclavicle -2.684846280740572e-15 -3.410675861658987e-16
lhumerus -27.874227539434763 -2.17710112985752 84.63804608317844
lradius 29.32575466350366
lwrist 5.590073946382555
lhand -26.811289592899968 25.288103773220556
lfingers 7.1250199999999975
lthumb -0.23781387567548878 55.250975965838244
rclavicle -2.684846280740572e-15 -3.410675861658987e-16
rhumerus -32.1546254199189 -25.26968470744942 -74.80711168206226
rradius 19.061863685019123
rwrist 12.228601818905712
rhand -16.792835448171623 22.795683985725727
rfingers 7.1250199999999975
rthumb 9.435151490799054 -7.033187686700622
33
root -0.05911716565335717 18.163223287937832 10.095990946747182 -3.460850080695518 0.8774639791126031 -4.484331336626436
lfemur -8.548537517614804 0.6124612322942418 -13.670857951087843
ltibia 67.28442696232537
lfoot 9.179237431722662 -11.95014556946327
ltoes -6.359127717733313
rfemur -13.915328301402047 5.871316045416868 30.146551133072904
rtibia 34.25254187831615
rfoot -9.701294145186012 -5.288960469274727
rtoes 10.370438302152152
lowerback 10.153848095993183 -0.3315910186300738 2.188190743875795
upperback 0.513534045225613 -0.04296808096450011 2.993755397516956
thorax -5.101622560427492 -0.030246882402337638 1.8768300614472024
lowerneck -16.67038589927281 -2.8786327149603412 -1.7504814673847338
upperneck 21.692039645574727 -3.647993678483329 0.5689770877340967
head 9.69674087161981 -1.790839399546219 0.0551354824695698
lclavicle -2.193483339712716e-15 -1.3322710342177384e-17
lhumerus -28.62293871021757 -1.9707113988024234 84.89697260455497
lradius 28.579735097698457
lwrist 4.95299803844888
lhand -26.237279251508347 25.556581568229795
lfingers 7.1250199999999975
lthumb 0.31654074020439615 55.52681060328108
rclavicle -2.193483339712716e-15 -1.3322710342177384e-17
rhumerus -30.762236172682783 -22.88488923121737 -76.37918876729783
rradius 19.91784897688257
rwrist 10.537372724333832
rhand -16.59964208647879 22.74704436858275
rfingers 7.1250199999999975
rthumb 9.621691944434751 -6.932461052353306
